<?xml version="1.0" encoding="utf-8"?>
<!-- Generator: Adobe Illustrator 20.1.0, SVG Export Plug-In . SVG Version: 6.00 Build 0)  -->
<svg version="1.1" id="Calque_1" xmlns="http://www.w3.org/2000/svg" xmlns:xlink="http://www.w3.org/1999/xlink" x="0px" y="0px"
	 viewBox="0 0 229.6 277.8" style="enable-background:new 0 0 229.6 277.8;" xml:space="preserve">
<style type="text/css">
	.st0{fill:#C6B081;}
</style>
<rect width="229.6" height="202.9"/>
<g>
	<rect y="202.5" class="st0" width="229.6" height="75.3"/>
</g>
<path class="st0" d="M108.6,38c2.7-0.3,4.6-2.8,4.3-5.7c-0.3-2.9-2.6-4.9-5.3-4.7c-2.7,0.3-4.6,2.8-4.4,5.7
	C103.5,36.2,105.9,38.3,108.6,38z M106.9,30c1.5-1,3.4-0.6,4.3,0.9c0.9,1.5,0.4,3.5-1.1,4.5c-1.5,1-3.4,0.6-4.3-0.9
	C104.9,33,105.4,31,106.9,30z M121.2,58.8c2.3,0.5,4.6-1,5-3.5c0.5-2.4-1-4.8-3.2-5.4c-2.3-0.5-4.5,1-5,3.5
	C117.5,55.9,118.9,58.3,121.2,58.8z M121.4,50.9c1.4-0.4,3,0.6,3.3,2.3c0.4,1.7-0.5,3.3-1.9,3.7c-1.5,0.4-3-0.6-3.3-2.3
	C119.1,53,120,51.3,121.4,50.9z M111.9,69.9c-1.9,0.2-3.4,1.9-3.2,4c0.2,2.1,1.8,3.6,3.8,3.4c1.9-0.2,3.4-2,3.2-4
	C115.5,71.3,113.9,69.8,111.9,69.9z M113.2,75.2c-0.9,0.6-2.1,0.2-2.7-0.8c-0.6-1-0.3-2.4,0.6-3c0.9-0.6,2.1-0.2,2.7,0.8
	C114.4,73.3,114.1,74.6,113.2,75.2z M74.1,84.4c-4.1-23.7,3.6-46.7,3.7-53.8l-0.1-0.2C71.5,52,66.6,68.9,69.3,85
	c2.5,14.5,8.1,22.6,19,38c7.8,11,8.5,20.4,8.5,20.4c0.3-3.8,1.2-10.3-11.3-29.6C79.1,103.3,75.5,92.6,74.1,84.4z M113.1,101.9
	c-0.7,0.5-0.9,1.6-0.4,2.3c0.5,0.7,1.5,0.9,2.2,0.4c0.7-0.5,0.9-1.6,0.4-2.3C114.7,101.5,113.8,101.4,113.1,101.9z M114.9,103.6
	c-0.2,0.5-0.8,0.7-1.2,0.4c-0.4-0.2-0.6-0.8-0.3-1.3c0.2-0.5,0.8-0.7,1.2-0.4C115,102.5,115.1,103.1,114.9,103.6z M119.9,87.2
	c-0.6-1.1-1.9-1.5-3-0.9c-1,0.6-1.4,2.1-0.8,3.2c0.6,1.1,2,1.5,3,0.9C120.2,89.7,120.5,88.3,119.9,87.2z M117.5,89.3
	c-0.6-0.4-0.7-1.2-0.3-1.9c0.4-0.6,1.2-0.8,1.7-0.4c0.6,0.4,0.7,1.2,0.3,1.9C118.9,89.5,118.1,89.7,117.5,89.3z M89.3,74.1
	L89.3,74.1c0,0-0.2,0-0.2,0.1c-5.4,23.4,1.9,27.5,13.7,54.8c11.7,27.1,3.4,58.6,3.7,57.7c-0.1,0.2,0.2,0.3,0.2,0
	c8-27.2,4.1-46.7-4.4-67.1C96,104.3,89.1,94.9,89.3,74.1z M140.5,74.1c0,0-0.2-0.1-0.2,0l0,0c0.2,20.8-6.7,30.2-13,45.4
	c-8.5,20.4-12.4,39.9-4.4,67.1c0.1,0.3,0.3,0.2,0.2,0c0.3,0.9-8-30.5,3.7-57.7C138.6,101.7,145.8,97.5,140.5,74.1z M151.9,30.4
	l-0.1,0.2c0.1,7.1,7.7,30.1,3.7,53.8c-1.4,8.2-5,18.8-11.5,29.4c-12.5,19.3-11.6,25.8-11.3,29.6c0,0,0.7-9.5,8.5-20.4
	c10.9-15.4,16.6-23.6,19.1-38C163,68.9,158.1,52,151.9,30.4z"/>
<path d="M162.7,212.9h-2.7l-2,3h1.1L162.7,212.9z M167.8,233.1h-15.3v-6.8H166V225h-13.5V219h14.6v-1.4h-16.2v17h16.9V233.1z
	 M115.5,234.6l6.4-13.9c0.3-0.6,0.3-0.7,0.5-1.2v15.1h1.5v-17h-2.1l-7.1,15.6c-0.3-0.7-0.4-1-0.7-1.8l-6.5-13.7h-2.1v17h1.5v-15.1
	c0.2,0.6,0.2,0.7,0.5,1.2l6.5,13.8L115.5,234.6L115.5,234.6z M91.7,235c6.2,0,10.1-4.1,10.1-9c0-4.3-3.2-8.9-10-9
	c-6.2,0-10.1,4-10.1,9C81.8,231.2,85.8,235,91.7,235z M91.3,218.5c2.8-0.1,4.9,0.9,5.7,1.4c2.1,1.4,3,3.8,3,6c0,4.9-3.7,7.6-8.1,7.6
	c-4.7,0-8.3-2.8-8.3-7.4C83.6,222.6,85.9,218.8,91.3,218.5z M71.3,235c2.7,0,5.6-0.8,7.7-3.4c0.5-0.6,0.8-1.1,1.1-1.6l-1.5-0.7
	c-0.7,1.2-2.6,4.2-7.3,4.2c-4.9,0-7.8-3.4-7.8-7.4c0-4.4,3.3-7.6,7.8-7.6c2.2,0,4.5,0.8,6,2.6c0.5,0.6,0.7,0.9,1,1.4l1.4-0.8
	c-0.6-1-1.5-2.4-3.4-3.4c-1.4-0.8-3.1-1.2-5-1.2c-5.4,0-9.5,3.8-9.5,8.9C61.8,230.1,64.5,235,71.3,235z M130.5,217.6h-1.6v17h1.6
	V217.6z M140,234.6h1.6V219h7.3v-1.4h-16.5v1.4h7.6L140,234.6L140,234.6z M54.2,248.7H44v-6.5h-4.3v17H44v-7.3h10.3v7.3h4.3v-17
	h-4.3V248.7z M27.4,256.6c-3.2,0-6.1-2.2-6.1-5.9c0-3.2,2.2-5.9,6-5.9c3.3,0,4.6,2,5.1,2.7l4.7-0.6c-2.2-4.9-7.8-5.3-9.7-5.3
	c-5.4,0-10.5,2.6-10.5,9c0,5.9,4.2,9.1,10.2,9.1c4.3,0,6.6-1.4,8-2.7c1.5-1.4,1.9-2.6,2.2-3.7l-4.5,0
	C32.2,254.4,31.1,256.6,27.4,256.6z M70.9,253.8c-1,0-1.9,0.9-1.9,1.9s0.9,1.9,1.9,1.9c1.1,0,1.9-0.9,1.9-1.9S72,253.8,70.9,253.8z
	 M200.7,256.1v-4.1h11.2v-3h-11.2v-3.8h11.6v-3.1h-15.8v17h16.3v-3H200.7z M158.8,244.7c3.2,0,4.4,1.5,5.1,2.3l4.7-0.6
	c-0.4-0.8-1.1-2.1-3-3.2c-2.3-1.4-5-1.6-6.7-1.6c-1.3,0-5.7,0-8.5,3c-1.5,1.6-2.3,3.8-2.3,6c0,4.1,2.2,9.1,10.2,9.1
	c2.6,0,5.2-0.7,7-2.5v1.9h3.2v-9.1h-9.1v3h5.6c-0.2,0.5-0.4,1.2-1.4,1.9c-1.1,0.8-2.7,1.5-4.8,1.5c-4.1,0-6.4-2.6-6.4-5.9
	C152.5,246.9,155.1,244.7,158.8,244.7z M68.7,242.2l-8.2,17h4.6l5.8-12.2l5.8,12.2h4.8l-8.2-17H68.7z M134.6,242.2l-8.2,17h4.6
	l5.8-12.2l5.8,12.2h4.8l-8.2-17H134.6z M187.6,250.8c0,1.5,0,1.9,0.2,3.5c-1.1-1.3-1.3-1.6-2.3-2.7l-8.3-9.4h-4.2v17h4v-9.4
	c0-1.3,0-1.6-0.1-2.9c0.9,1.2,1.3,1.6,2.2,2.7l8.4,9.6h4.2v-17h-4.1L187.6,250.8L187.6,250.8z M95.5,252.8c-0.5,1.2-0.6,1.6-0.8,2.3
	c-0.2-1-0.4-1.4-0.9-2.5l-4.4-10.4h-6.1v17h4v-11.9c0-0.7-0.1-0.8-0.1-1.5c0.2,0.7,0.2,0.9,0.5,1.5l5.1,11.9h3.9l5.1-12.2
	c0.2-0.6,0.3-0.8,0.5-1.3c-0.1,0.6-0.2,1.1-0.2,1.6v11.9h4v-17h-6.1L95.5,252.8z M127.7,247.5c0-1.3-0.3-2.5-0.9-3.3
	c-1.3-1.9-3.7-2-5.5-2h-10.5v17h4.2v-6.4h5.9c2.2,0,4.2-0.1,5.6-1.8C127.2,250.2,127.7,249.1,127.7,247.5z M120.2,249.8H115v-4.7
	h4.8c1.8,0,2.4,0,3,0.5c0.4,0.4,0.7,1,0.7,1.9C123.5,249.7,121.6,249.8,120.2,249.8z M136.9,253.8c-1.1,0-1.9,0.9-1.9,1.9
	s0.9,1.9,1.9,1.9s1.9-0.9,1.9-1.9S137.9,253.8,136.9,253.8z"/>
</svg>
